<svg width="20" height="20" viewBox="0 0 20 20" fill="none" xmlns="http://www.w3.org/2000/svg">
<path fill-rule="evenodd" clip-rule="evenodd" d="M6.25 2.49512H13.75V4.37012H6.25V2.49512ZM5 2.49512C5 1.80476 5.55964 1.24512 6.25 1.24512H13.75C14.4404 1.24512 15 1.80476 15 2.49512V4.37012V4.375H15.488H16.7414H17.8125C18.1577 4.375 18.4375 4.65482 18.4375 5C18.4375 5.34518 18.1577 5.625 17.8125 5.625H16.65L15.9044 15.822C15.8089 17.1284 14.721 18.1396 13.4111 18.1396H6.58973C5.27915 18.1396 4.19103 17.1276 4.09628 15.8204L3.35721 5.625H2.1875C1.84232 5.625 1.5625 5.34518 1.5625 5C1.5625 4.65482 1.84232 4.375 2.1875 4.375H3.2666H4.51988H5V4.37012V2.49512ZM4.61049 5.625H15.3966L14.6577 15.7308C14.61 16.384 14.066 16.8896 13.4111 16.8896H6.58973C5.93444 16.8896 5.39038 16.3836 5.34301 15.73L4.61049 5.625ZM8.125 15C7.77982 15 7.5 14.7202 7.5 14.375L7.5 8.125C7.5 7.77982 7.77982 7.5 8.125 7.5C8.47018 7.5 8.75 7.77982 8.75 8.125L8.75 14.375C8.75 14.7202 8.47018 15 8.125 15ZM11.25 14.375C11.25 14.7202 11.5298 15 11.875 15C12.2202 15 12.5 14.7202 12.5 14.375V8.125C12.5 7.77982 12.2202 7.5 11.875 7.5C11.5298 7.5 11.25 7.77982 11.25 8.125V14.375Z" fill="#BABCBF"/>
</svg>
