<svg width="16" height="16" viewBox="0 0 16 16" fill="none" xmlns="http://www.w3.org/2000/svg">
<path d="M11.0067 9.80516H10.3743L10.1501 9.58901C10.9346 8.6764 11.407 7.49161 11.407 6.20275C11.407 3.32883 9.0774 0.999268 6.20348 0.999268C3.32956 0.999268 1 3.32883 1 6.20275C1 9.07667 3.32956 11.4062 6.20348 11.4062C7.49234 11.4062 8.67714 10.9339 9.58975 10.1494L9.80589 10.3735V11.006L13.8086 15.0006L15.0014 13.8078L11.0067 9.80516ZM6.20348 9.80516C4.21015 9.80516 2.60107 8.19608 2.60107 6.20275C2.60107 4.20942 4.21015 2.60034 6.20348 2.60034C8.19681 2.60034 9.80589 4.20942 9.80589 6.20275C9.80589 8.19608 8.19681 9.80516 6.20348 9.80516Z" fill="white" fill-opacity="0.7"/>
</svg>
