<svg width="20" height="20" viewBox="0 0 20 20" fill="none" xmlns="http://www.w3.org/2000/svg">
<path fill-rule="evenodd" clip-rule="evenodd" d="M18.3139 12.9899L12.4505 3.22405C12.2164 2.83484 11.9002 2.50672 11.5242 2.26533C10.1707 1.39205 8.39172 1.82143 7.5492 3.22405L1.68578 12.9899C1.4021 13.465 1.25 14.0118 1.25 14.5711C1.25 16.2236 2.54197 17.5626 4.13642 17.5626H15.8633C16.1401 17.5626 16.4135 17.522 16.6733 17.443C16.9245 17.3669 17.1655 17.2554 17.3876 17.111C18.7411 16.2377 19.1564 14.3925 18.3139 12.9899ZM10.0741 15.4617C9.44813 15.4617 8.94202 14.9847 8.95534 14.3933C8.94202 13.8083 9.44813 13.3314 10.0741 13.3377C10.6668 13.3314 11.1796 13.8083 11.1796 14.3933C11.1796 14.9847 10.6668 15.4617 10.0741 15.4617ZM11.055 6.01282H8.95508V12.3127H11.055V6.01282Z" fill="#EB4136"/>
</svg>
