<svg width="40" height="40" viewBox="0 0 40 40" fill="none" xmlns="http://www.w3.org/2000/svg">
<g opacity="0.8">
<path d="M9.34913 23.0117H3.85556C3.38305 23.0117 3 23.3948 3 23.8673V29.3778C3 29.8503 3.38305 30.2333 3.85556 30.2333H9.34913C9.82164 30.2333 10.2047 29.8503 10.2047 29.3778V23.8673C10.2047 23.3948 9.82164 23.0117 9.34913 23.0117Z" fill="url(#paint0_linear_3013_4514)"/>
<path d="M19.6575 23.0117H14.1639C13.6914 23.0117 13.3083 23.3948 13.3083 23.8673V29.3778C13.3083 29.8503 13.6914 30.2333 14.1639 30.2333H19.6575C20.13 30.2333 20.513 29.8503 20.513 29.3778V23.8673C20.513 23.3948 20.13 23.0117 19.6575 23.0117Z" fill="url(#paint1_linear_3013_4514)"/>
<path opacity="0.1" d="M29.9648 23.0117H24.4713C23.9988 23.0117 23.6157 23.3948 23.6157 23.8673V29.3778C23.6157 29.8503 23.9988 30.2333 24.4713 30.2333H29.9648C30.4374 30.2333 30.8204 29.8503 30.8204 29.3778V23.8673C30.8204 23.3948 30.4374 23.0117 29.9648 23.0117Z" fill="url(#paint2_linear_3013_4514)"/>
<path opacity="0.9" d="M29.9648 12.3945H24.4713C23.9988 12.3945 23.6157 12.7776 23.6157 13.2501V18.7606C23.6157 19.2331 23.9988 19.6161 24.4713 19.6161H29.9648C30.4374 19.6161 30.8204 19.2331 30.8204 18.7606V13.2501C30.8204 12.7776 30.4374 12.3945 29.9648 12.3945Z" fill="url(#paint3_linear_3013_4514)"/>
<path d="M19.6907 12.5059H14.1971C13.7246 12.5059 13.3416 12.8889 13.3416 13.3614V18.8719C13.3416 19.3444 13.7246 19.7275 14.1971 19.7275H19.6907C20.1632 19.7275 20.5462 19.3444 20.5462 18.8719V13.3614C20.5462 12.8889 20.1632 12.5059 19.6907 12.5059Z" fill="url(#paint4_linear_3013_4514)"/>
<path d="M9.41407 12.5059H3.9205C3.44799 12.5059 3.06494 12.8889 3.06494 13.3614V18.8719C3.06494 19.3444 3.44799 19.7275 3.9205 19.7275H9.41407C9.88658 19.7275 10.2696 19.3444 10.2696 18.8719V13.3614C10.2696 12.8889 9.88658 12.5059 9.41407 12.5059Z" fill="url(#paint5_linear_3013_4514)"/>
<path d="M29.9648 2H24.4713C23.9988 2 23.6157 2.38305 23.6157 2.85556V8.36605C23.6157 8.83857 23.9988 9.22161 24.4713 9.22161H29.9648C30.4374 9.22161 30.8204 8.83857 30.8204 8.36606V2.85556C30.8204 2.38305 30.4374 2 29.9648 2Z" fill="url(#paint6_linear_3013_4514)"/>
</g>
<path opacity="0.7" d="M27.6794 15.9106C22.0031 15.9106 17.3589 20.6969 17.3589 26.5467C17.3589 32.3965 22.0031 37.1827 27.6794 37.1827C33.3557 37.1827 37.9999 32.3965 37.9999 26.5467C37.9999 20.6969 33.3557 15.9106 27.6794 15.9106ZM32.4356 30.3078C32.2046 30.6946 31.7001 30.8147 31.3196 30.5734L27.0641 27.8746C26.8046 27.71 26.6473 27.424 26.6473 27.1167V22.0027C26.6473 21.5752 26.9939 21.2286 27.4214 21.2286C27.8489 21.2286 28.1954 21.5752 28.1954 22.0027V26.7594L32.1693 29.2166C32.5412 29.4465 32.6598 29.9324 32.4356 30.3078Z" fill="url(#paint7_linear_3013_4514)"/>
<defs>
<linearGradient id="paint0_linear_3013_4514" x1="6.60234" y1="23.0117" x2="6.60234" y2="30.2333" gradientUnits="userSpaceOnUse">
<stop stop-color="white"/>
<stop offset="1" stop-color="white" stop-opacity="0.5"/>
</linearGradient>
<linearGradient id="paint1_linear_3013_4514" x1="9.28216" y1="28.6807" x2="21.3975" y2="28.6807" gradientUnits="userSpaceOnUse">
<stop stop-color="white"/>
<stop offset="1" stop-color="white" stop-opacity="0"/>
</linearGradient>
<linearGradient id="paint2_linear_3013_4514" x1="27.2181" y1="23.0117" x2="27.2181" y2="30.2333" gradientUnits="userSpaceOnUse">
<stop stop-color="white"/>
<stop offset="1" stop-color="white" stop-opacity="0.5"/>
</linearGradient>
<linearGradient id="paint3_linear_3013_4514" x1="27.2181" y1="10.9743" x2="27.2181" y2="19.6161" gradientUnits="userSpaceOnUse">
<stop stop-color="white"/>
<stop offset="1" stop-color="white" stop-opacity="0"/>
</linearGradient>
<linearGradient id="paint4_linear_3013_4514" x1="16.9439" y1="12.5059" x2="16.9439" y2="19.7275" gradientUnits="userSpaceOnUse">
<stop stop-color="white"/>
<stop offset="1" stop-color="white" stop-opacity="0.5"/>
</linearGradient>
<linearGradient id="paint5_linear_3013_4514" x1="6.66728" y1="12.5059" x2="6.66728" y2="19.7275" gradientUnits="userSpaceOnUse">
<stop stop-color="white"/>
<stop offset="1" stop-color="white" stop-opacity="0.5"/>
</linearGradient>
<linearGradient id="paint6_linear_3013_4514" x1="27.2181" y1="2" x2="27.2181" y2="9.22161" gradientUnits="userSpaceOnUse">
<stop stop-color="white"/>
<stop offset="1" stop-color="white" stop-opacity="0.5"/>
</linearGradient>
<linearGradient id="paint7_linear_3013_4514" x1="27.6794" y1="15.9106" x2="27.6794" y2="37.1827" gradientUnits="userSpaceOnUse">
<stop stop-color="white"/>
<stop offset="1" stop-color="#999999"/>
</linearGradient>
</defs>
</svg>
