<svg width="14" height="14" viewBox="0 0 14 14" fill="none" xmlns="http://www.w3.org/2000/svg">
<path d="M0.792 1.501L1.499 0.794L3.207 2.501L2.5 3.2085L0.792 1.501ZM10.7905 11.496L11.498 10.789L13.205 12.497L12.498 13.204L10.7905 11.496ZM4.5 0H5.5V2H4.5V0ZM0 4.5H2V5.5H0V4.5ZM12 8.5H14V9.5H12V8.5ZM8.5 12H9.5V14H8.5V12ZM7.29 9.535L5.435 11.395C5.24918 11.5808 5.02858 11.7282 4.78579 11.8288C4.54301 11.9294 4.28279 11.9811 4.02 11.9811C3.75721 11.9811 3.49699 11.9294 3.25421 11.8288C3.01142 11.7282 2.79082 11.5808 2.605 11.395C2.22972 11.0197 2.01889 10.5107 2.01889 9.98C2.01889 9.44927 2.22972 8.94028 2.605 8.565L4.465 6.705L3.755 6L1.9 7.86C1.61533 8.13707 1.38853 8.46792 1.23275 8.83334C1.07697 9.19877 0.995311 9.59149 0.992521 9.98873C0.98973 10.386 1.06586 10.7798 1.21649 11.1474C1.36712 11.515 1.58925 11.849 1.87 12.13C2.15032 12.408 2.48277 12.628 2.84828 12.7773C3.21379 12.9266 3.60518 13.0023 4 13C4.40168 13.0004 4.79944 12.921 5.17023 12.7665C5.54101 12.612 5.87743 12.3855 6.16 12.1L8 10.245L7.29 9.535ZM6.705 4.465L8.565 2.605C8.75082 2.41918 8.97142 2.27178 9.21421 2.17121C9.45699 2.07065 9.71721 2.01889 9.98 2.01889C10.2428 2.01889 10.503 2.07065 10.7458 2.17121C10.9886 2.27178 11.2092 2.41918 11.395 2.605C11.5808 2.79082 11.7282 3.01142 11.8288 3.25421C11.9294 3.49699 11.9811 3.75721 11.9811 4.02C11.9811 4.28279 11.9294 4.54301 11.8288 4.78579C11.7282 5.02858 11.5808 5.24918 11.395 5.435L9.535 7.295L10.245 8L12.1 6.14C12.3847 5.86293 12.6115 5.53208 12.7673 5.16666C12.923 4.80123 13.0047 4.40851 13.0075 4.01127C13.0103 3.61404 12.9341 3.2202 12.7835 2.85262C12.6329 2.48505 12.4107 2.15104 12.13 1.87C11.8497 1.59196 11.5172 1.37198 11.1517 1.22269C10.7862 1.07339 10.3948 0.997717 10 1C9.59832 0.999614 9.20056 1.07897 8.82977 1.23346C8.45899 1.38795 8.12257 1.61451 7.84 1.9L6 3.755L6.705 4.465Z" fill="white"/>
</svg>
