<svg width="40" height="40" viewBox="0 0 40 40" fill="none" xmlns="http://www.w3.org/2000/svg">
<g filter="url(#filter0_d_2697_12483)">
<path fill-rule="evenodd" clip-rule="evenodd" d="M17.8264 2.48889C19.0276 1.83704 20.5074 1.83704 21.7086 2.48889L35.0568 9.73295C36.258 10.3848 36.9979 11.5895 36.9979 12.8932V27.3813C36.9979 28.685 36.258 29.8897 35.0568 30.5416L21.7086 37.7856C20.5074 38.4375 19.0276 38.4375 17.8264 37.7856L4.47818 30.5416C3.27704 29.8897 2.53711 28.685 2.53711 27.3813V12.8932C2.53711 11.5895 3.27704 10.3848 4.47818 9.73295L17.8264 2.48889ZM10.6167 14.3722C10.7879 14.0303 11.2215 13.8836 11.5853 14.0445L19.5202 17.5544L27.2142 14.0479C27.5759 13.883 28.0114 14.025 28.1867 14.3651C28.3621 14.7051 28.2111 15.1144 27.8493 15.2792L20.2085 18.7615C20.2372 18.8349 20.2528 18.9142 20.2528 18.9969V26.2952C20.2528 26.673 19.9269 26.9794 19.5249 26.9794C19.1229 26.9794 18.797 26.673 18.797 26.2952V18.9969C18.797 18.9158 18.812 18.8379 18.8396 18.7657L10.9654 15.2827C10.6016 15.1218 10.4455 14.7141 10.6167 14.3722Z" fill="url(#paint0_linear_2697_12483)" shape-rendering="crispEdges"/>
</g>
<defs>
<filter id="filter0_d_2697_12483" x="-4.86289" y="-5.4" width="49.2609" height="51.0745" filterUnits="userSpaceOnUse" color-interpolation-filters="sRGB">
<feFlood flood-opacity="0" result="BackgroundImageFix"/>
<feColorMatrix in="SourceAlpha" type="matrix" values="0 0 0 0 0 0 0 0 0 0 0 0 0 0 0 0 0 0 127 0" result="hardAlpha"/>
<feOffset/>
<feGaussianBlur stdDeviation="3.7"/>
<feComposite in2="hardAlpha" operator="out"/>
<feColorMatrix type="matrix" values="0 0 0 0 0 0 0 0 0 0 0 0 0 0 0 0 0 0 0.2 0"/>
<feBlend mode="normal" in2="BackgroundImageFix" result="effect1_dropShadow_2697_12483"/>
<feBlend mode="normal" in="SourceGraphic" in2="effect1_dropShadow_2697_12483" result="shape"/>
</filter>
<linearGradient id="paint0_linear_2697_12483" x1="19.7675" y1="2" x2="19.7675" y2="38.2745" gradientUnits="userSpaceOnUse">
<stop stop-color="white" stop-opacity="0.8"/>
<stop offset="1" stop-color="white" stop-opacity="0.4"/>
</linearGradient>
</defs>
</svg>