<svg width="30" height="30" viewBox="0 0 20 20" fill="none" xmlns="http://www.w3.org/2000/svg">
<rect width="20" height="20" rx="10" fill="#125AED"/>
<rect width="20" height="20" rx="10" fill="url(#paint0_linear_2697_8698)" fill-opacity="0.2"/>
<g clip-path="url(#clip0_2697_8698)">
<path d="M8.53906 14.3763C8.53906 14.1848 8.57678 13.9951 8.65007 13.8182C8.72336 13.6413 8.83078 13.4805 8.9662 13.3451C9.10162 13.2097 9.26238 13.1022 9.43932 13.0289C9.61625 12.9557 9.80588 12.9179 9.9974 12.9179C10.1889 12.9179 10.3785 12.9557 10.5555 13.0289C10.7324 13.1022 10.8932 13.2097 11.0286 13.3451C11.164 13.4805 11.2714 13.6413 11.3447 13.8182C11.418 13.9951 11.4557 14.1848 11.4557 14.3763C11.4557 14.763 11.3021 15.134 11.0286 15.4075C10.7551 15.681 10.3842 15.8346 9.9974 15.8346C9.61062 15.8346 9.23969 15.681 8.9662 15.4075C8.69271 15.134 8.53906 14.763 8.53906 14.3763ZM8.68198 5.61898C8.66256 5.435 8.68204 5.24899 8.73915 5.07302C8.79626 4.89705 8.88972 4.73505 9.01349 4.59754C9.13725 4.46003 9.28854 4.35007 9.45754 4.27481C9.62654 4.19954 9.80948 4.16064 9.99448 4.16064C10.1795 4.16064 10.3624 4.19954 10.5314 4.27481C10.7004 4.35007 10.8517 4.46003 10.9755 4.59754C11.0992 4.73505 11.1927 4.89705 11.2498 5.07302C11.3069 5.24899 11.3264 5.435 11.307 5.61898L10.7966 10.7334C10.7758 10.9316 10.6824 11.1152 10.5343 11.2486C10.3861 11.3821 10.1938 11.4559 9.99448 11.4559C9.79512 11.4559 9.60282 11.3821 9.4547 11.2486C9.30658 11.1152 9.21313 10.9316 9.1924 10.7334L8.68198 5.61898Z" fill="white"/>
</g>
<defs>
<linearGradient id="paint0_linear_2697_8698" x1="10" y1="0" x2="10" y2="20" gradientUnits="userSpaceOnUse">
<stop stop-opacity="0"/>
<stop offset="1"/>
</linearGradient>
<clipPath id="clip0_2697_8698">
<rect width="11.6667" height="11.6667" fill="white" transform="translate(4.16602 4.16663)"/>
</clipPath>
</defs>
</svg>