<svg width="40" height="40" viewBox="0 0 40 40" fill="none" xmlns="http://www.w3.org/2000/svg">
<path d="M9.54762 13.8296C9.90413 13.8296 10.247 13.8749 10.5761 13.9653C10.6517 13.9861 10.7331 13.9641 10.7857 13.9059C12.1161 12.4313 13.581 11.0838 15.1613 9.88073C15.2245 9.83256 15.2532 9.75171 15.2372 9.67378C15.1095 9.04892 15.137 8.40228 15.3172 7.79065C15.342 7.70635 15.3129 7.61461 15.2412 7.56379C13.4343 6.28262 11.4855 5.21416 9.43353 4.37963C9.37454 4.35563 9.30759 4.36139 9.25365 4.39524C7.31799 5.60987 5.62279 7.17077 4.25293 8.99966C4.20568 9.06274 4.20049 9.14784 4.23953 9.21632C5.23917 10.9698 6.41735 12.6078 7.75135 14.1056C7.81057 14.1721 7.90656 14.1904 7.98813 14.1547C8.46486 13.9461 8.99127 13.8296 9.54762 13.8296ZM5.63162 17.7436C5.63162 17.2394 5.72911 16.757 5.90099 16.3165C5.92944 16.2436 5.9158 16.1605 5.86338 16.1024C4.71867 14.8328 3.6776 13.4737 2.75012 12.0381C2.66566 11.9074 2.47085 11.9172 2.40363 12.0575C1.21694 14.5361 0.599852 17.2506 0.599619 20.0016C0.596359 23.1361 1.39732 26.2158 2.92181 28.9478C3.012 29.1094 3.25258 29.0668 3.28821 28.8852C3.88138 25.8616 4.9193 22.9419 6.36878 20.2213C6.40568 20.152 6.39868 20.0678 6.35321 20.0038C5.8844 19.3445 5.63158 18.5547 5.63162 17.7436ZM19.0716 4.97762C20.0587 4.97762 20.9564 5.34394 21.6466 5.94784C21.7064 6.00019 21.7908 6.01521 21.8639 5.98403C23.7286 5.18874 25.666 4.57721 27.6488 4.15792C27.8298 4.11963 27.8689 3.87847 27.706 3.79066C25.0333 2.35006 22.0414 1.59572 18.9996 1.59962C16.9427 1.59969 14.9015 1.94462 12.9607 2.61905C12.7954 2.67646 12.7831 2.90313 12.9387 2.98303C14.343 3.70416 15.692 4.52828 16.9749 5.44869C17.0397 5.49525 17.1258 5.49873 17.1958 5.46016C17.7533 5.15266 18.3906 4.97762 19.0716 4.97762ZM24.7765 23.3933C24.8638 23.4068 24.9489 23.3606 24.9896 23.2822C25.2035 22.8701 25.4912 22.5006 25.8383 22.1921C25.8997 22.1376 25.925 22.0523 25.8993 21.9743C24.769 18.5529 23.0023 15.3758 20.6923 12.6104C20.6362 12.5432 20.5428 12.5213 20.4609 12.5523C19.8819 12.7713 19.2584 12.8503 18.6416 12.7819C18.0249 12.7134 17.434 12.4996 16.9171 12.159C16.8439 12.1108 16.748 12.1117 16.6785 12.165C15.3446 13.1885 14.1035 14.3277 12.9696 15.5693C12.9092 15.6355 12.9012 15.7338 12.9461 15.8115C13.2021 16.2544 13.3677 16.7443 13.4328 17.2528C13.498 17.7617 13.461 18.2779 13.3245 18.7714C13.3008 18.8573 13.3326 18.9498 13.4069 18.999C16.8355 21.2665 20.7141 22.7656 24.7765 23.3933ZM30.1306 28.643C30.0539 28.6795 30.0057 28.7583 30.0112 28.8429C30.1335 30.6979 30.0938 32.5598 29.8928 34.4075C29.8739 34.5815 30.0701 34.6959 30.209 34.5894C33.089 32.3785 35.2513 29.364 36.4222 25.9255C36.4725 25.7778 36.3394 25.6344 36.1874 25.6694C34.9073 25.9639 33.6097 26.1762 32.3024 26.305C32.223 26.3128 32.1561 26.3669 32.1289 26.4418C31.9545 26.9223 31.6877 27.3644 31.343 27.743C31.0007 28.1191 30.5888 28.4246 30.1306 28.643ZM23.463 26.3286C23.6341 26.2382 23.5943 25.9768 23.4041 25.9414C19.2166 25.1616 15.2313 23.5323 11.6948 21.1521C11.6295 21.1081 11.5447 21.1066 11.4763 21.1456C10.6929 21.5929 9.77862 21.7547 8.88969 21.6037C8.80173 21.5888 8.71281 21.63 8.67154 21.7091C6.92897 25.0487 5.86809 28.7018 5.55091 32.4558C5.54618 32.5117 5.56537 32.5671 5.60381 32.608C7.31708 34.4331 9.38455 35.8892 11.6795 36.8874C11.7685 36.9261 11.8721 36.8942 11.9254 36.8132C14.8274 32.3998 18.7971 28.794 23.463 26.3286ZM31.4171 6.42108C31.3755 6.38312 31.3197 6.36471 31.2636 6.37037C28.4555 6.6539 25.705 7.35151 23.1013 8.44045C23.0205 8.47424 22.9721 8.55698 22.9775 8.6444C23.0169 9.27804 22.901 9.91187 22.6397 10.4907C22.6069 10.5634 22.6172 10.649 22.6687 10.7099C25.2448 13.7584 27.2161 17.2699 28.477 21.0566C28.5039 21.1374 28.5787 21.1921 28.6637 21.1967C29.3716 21.2349 30.0568 21.4645 30.6457 21.8621C31.2332 22.2588 31.7014 22.8067 32.0015 23.4469C32.0387 23.5263 32.1212 23.5756 32.2084 23.5663C33.885 23.3874 35.5181 23.0651 37.0941 22.6096C37.1694 22.5879 37.2248 22.5238 37.2353 22.4462C37.6327 19.511 37.3141 16.5226 36.3059 13.7363C35.2931 10.9373 33.6152 8.42689 31.4171 6.42108ZM26.0766 28.2167C26.0153 28.1694 25.9329 28.1585 25.863 28.1916C21.3869 30.3127 17.5392 33.5595 14.6958 37.613C14.6157 37.7272 14.6757 37.8856 14.8115 37.9173C16.1841 38.2379 17.5894 38.3998 18.9996 38.3996C21.6483 38.3997 24.2654 37.8279 26.6721 36.7239C26.7297 36.6975 26.7712 36.645 26.7836 36.5829C27.1506 34.7576 27.3436 32.8728 27.3436 30.9436C27.3424 30.2786 27.3172 29.6201 27.2681 28.9679C27.262 28.8867 27.2066 28.8181 27.1299 28.7909C26.7506 28.6565 26.3951 28.4627 26.0766 28.2167Z" fill="url(#paint0_linear_3013_2523)"/>
<defs>
<linearGradient id="paint0_linear_3013_2523" x1="19.0005" y1="1.59961" x2="19.0005" y2="38.3996" gradientUnits="userSpaceOnUse">
<stop stop-color="white"/>
<stop offset="1" stop-color="white" stop-opacity="0.5"/>
</linearGradient>
</defs>
</svg>
