<?xml version="1.0" standalone="no"?>
<!DOCTYPE svg PUBLIC "-//W3C//DTD SVG 20010904//EN"
 "http://www.w3.org/TR/2001/REC-SVG-20010904/DTD/svg10.dtd">
<svg version="1.0" xmlns="http://www.w3.org/2000/svg"
 width="114.000000pt" height="100.000000pt" viewBox="0 0 114.000000 100.000000"
 preserveAspectRatio="xMidYMid meet">

<g transform="translate(0.000000,100.000000) scale(0.100000,-0.100000)"
fill="#000000" stroke="none">
<path d="M476 784 c-11 -10 -16 -34 -16 -75 l0 -59 -30 0 c-55 0 -100 -66 -68
-98 20 -20 38 -14 38 13 0 14 8 29 19 35 21 11 308 14 360 4 24 -5 31 -12 31
-30 0 -27 12 -37 34 -28 23 9 20 56 -4 82 -12 13 -33 22 -50 22 -29 0 -30 1
-30 53 0 31 -6 61 -16 75 -14 21 -23 22 -134 22 -94 0 -122 -3 -134 -16z m234
-84 l0 -50 -99 0 c-108 0 -111 1 -111 73 l0 27 105 0 105 0 0 -50z"/>
<path d="M127 452 c-21 -23 -21 -41 -1 -70 18 -26 50 -28 82 -6 16 11 42 15
97 13 46 -2 79 1 86 8 18 18 2 63 -21 63 -11 0 -20 -4 -20 -10 0 -17 -126 -12
-140 5 -17 21 -63 19 -83 -3z m48 -32 c3 -5 1 -10 -4 -10 -6 0 -11 5 -11 10 0
6 2 10 4 10 3 0 8 -4 11 -10z"/>
<path d="M1010 456 c-16 -20 -146 -23 -153 -3 -6 15 -41 -3 -44 -24 -7 -34 14
-43 91 -40 58 2 83 -2 106 -15 55 -33 114 12 86 67 -14 29 -66 38 -86 15z m45
-36 c3 -5 1 -10 -4 -10 -6 0 -11 5 -11 10 0 6 2 10 4 10 3 0 8 -4 11 -10z"/>
<path d="M362 288 c-17 -17 -15 -38 8 -75 l20 -33 215 0 c204 0 216 1 236 21
29 29 24 93 -8 97 -20 3 -23 -1 -23 -31 0 -23 -6 -37 -16 -41 -20 -8 -342 -8
-371 0 -18 5 -23 14 -23 40 0 35 -16 44 -38 22z"/>
</g>
</svg>
