<?xml version="1.0" standalone="no"?>
<!DOCTYPE svg PUBLIC "-//W3C//DTD SVG 20010904//EN"
 "http://www.w3.org/TR/2001/REC-SVG-20010904/DTD/svg10.dtd">
<svg version="1.0" xmlns="http://www.w3.org/2000/svg"
 width="834.000000pt" height="184.000000pt" viewBox="0 0 834.000000 184.000000"
 preserveAspectRatio="xMidYMid meet">

<g transform="translate(0.000000,184.000000) scale(0.100000,-0.100000)"
fill="#000000" stroke="none">
<path d="M764 1366 c-16 -12 -20 -30 -24 -113 l-5 -98 -53 -6 c-29 -4 -59 -13
-68 -20 -42 -34 -59 -122 -26 -132 9 -2 25 -8 35 -12 14 -6 17 -1 17 34 0 71
5 72 326 70 153 -1 287 -6 297 -11 12 -6 17 -21 17 -53 0 -25 2 -45 4 -45 1 0
17 5 35 11 27 9 31 16 31 46 0 71 -45 113 -120 113 l-40 0 0 90 c0 83 -2 93
-25 115 -24 25 -26 25 -203 25 -138 0 -183 -3 -198 -14z m356 -136 l0 -81
-157 3 -158 3 -3 78 -3 77 161 0 160 0 0 -80z"/>
<path d="M4650 1105 l0 -265 30 0 30 0 0 265 0 265 -30 0 -30 0 0 -265z"/>
<path d="M4842 1358 c-27 -27 -2 -68 43 -68 23 0 41 45 25 65 -15 18 -51 20
-68 3z"/>
<path d="M1965 1329 c-3 -8 -4 -120 -3 -249 l3 -235 33 -3 32 -3 0 74 0 74 99
6 c144 8 197 39 222 131 9 31 9 52 0 86 -25 92 -80 120 -257 128 -101 4 -125
2 -129 -9z m248 -60 c46 -12 77 -57 77 -112 0 -71 -64 -107 -192 -107 l-68 0
0 115 0 115 73 0 c39 0 89 -5 110 -11z"/>
<path d="M3700 1090 l0 -250 30 0 30 0 0 74 0 73 98 6 c105 6 144 16 181 50
49 45 66 139 36 197 -36 71 -121 100 -287 100 l-88 0 0 -250z m242 180 c52
-15 78 -51 78 -110 0 -41 -4 -52 -30 -74 -34 -28 -88 -39 -170 -34 l-55 3 -3
99 c-1 55 0 106 2 113 7 16 123 18 178 3z"/>
<path d="M6040 1090 l0 -250 35 0 35 0 0 100 0 99 123 3 122 3 3 28 3 27 -125
0 -126 0 0 90 0 90 141 0 140 0 -3 28 -3 27 -172 3 -173 2 0 -250z"/>
<path d="M3210 1260 c0 -38 -2 -40 -30 -40 -27 0 -30 -3 -30 -30 0 -27 3 -30
30 -30 l30 0 0 -114 c0 -63 4 -126 10 -140 20 -53 110 -83 163 -55 30 16 30
15 18 37 -9 17 -16 19 -38 13 -68 -19 -83 7 -83 146 l0 113 50 0 c49 0 50 1
50 30 0 29 -1 30 -50 30 l-50 0 0 40 c0 39 -1 40 -35 40 -34 0 -35 -1 -35 -40z"/>
<path d="M2553 1210 c-69 -22 -123 -105 -123 -189 0 -156 202 -239 324 -132
63 55 75 186 24 253 -47 61 -147 91 -225 68z m142 -72 c73 -57 70 -177 -4
-221 -44 -26 -113 -22 -149 8 -46 38 -60 132 -27 185 30 49 133 65 180 28z"/>
<path d="M2910 1029 l0 -190 33 3 32 3 5 128 c5 129 5 129 35 153 17 13 38 24
47 24 34 0 48 12 48 42 0 29 -1 30 -36 23 -40 -7 -84 -32 -84 -46 0 -5 -4 -9
-10 -9 -5 0 -10 14 -10 30 0 27 -3 30 -30 30 l-30 0 0 -191z"/>
<path d="M4273 1200 c-150 -67 -144 -281 9 -345 146 -60 296 67 258 220 -14
58 -58 109 -107 126 -55 18 -119 18 -160 -1z m174 -73 c20 -19 27 -39 31 -80
8 -95 -39 -147 -133 -147 -37 0 -51 6 -77 30 -27 26 -32 39 -35 88 -3 45 0 64
17 90 26 42 52 53 118 49 41 -3 59 -10 79 -30z"/>
<path d="M4844 1207 c-2 -7 -3 -91 -2 -187 l3 -175 33 -3 32 -3 0 190 0 191
-30 0 c-17 0 -33 -6 -36 -13z"/>
<path d="M5139 1210 c-45 -13 -79 -41 -106 -87 -22 -37 -25 -53 -21 -107 6
-104 70 -164 184 -174 55 -5 98 11 134 50 l21 22 -23 18 c-22 16 -24 16 -45
-4 -16 -15 -40 -23 -78 -26 -52 -4 -56 -3 -89 30 -42 42 -54 93 -34 146 29 78
135 108 196 57 29 -25 30 -25 53 -6 l23 18 -27 25 c-44 41 -125 58 -188 38z"/>
<path d="M5380 1215 c0 -2 36 -86 81 -186 51 -116 78 -190 75 -203 -14 -55
-77 -82 -126 -56 -15 8 -21 6 -31 -11 -14 -26 -3 -39 43 -48 51 -11 109 3 133
33 15 18 187 395 213 467 2 5 -10 9 -26 9 -28 0 -32 -6 -65 -82 -20 -46 -50
-114 -67 -153 l-31 -70 -61 140 c-33 77 -65 146 -70 153 -10 11 -68 18 -68 7z"/>
<path d="M6567 1206 c-73 -27 -118 -93 -119 -177 -1 -183 248 -260 350 -107
37 57 42 142 12 196 -48 86 -148 121 -243 88z m152 -71 c54 -46 58 -152 7
-203 -18 -19 -38 -26 -78 -30 -47 -4 -58 -1 -86 23 -60 50 -67 148 -14 197 33
31 46 36 99 37 31 1 49 -6 72 -24z"/>
<path d="M6948 1213 c-16 -4 -18 -22 -18 -189 l0 -184 29 0 29 0 4 118 c6 157
16 176 111 196 22 5 27 12 27 36 0 23 -4 30 -20 30 -33 0 -86 -26 -104 -51
l-16 -23 0 37 c0 37 -4 40 -42 30z"/>
<path d="M7306 1210 c-34 -11 -82 -54 -102 -93 -17 -33 -20 -110 -6 -148 14
-36 75 -86 119 -98 57 -16 85 -13 139 14 27 14 50 25 52 25 6 0 1 -62 -8 -84
-24 -63 -132 -85 -220 -45 -42 19 -45 19 -57 3 -19 -26 -17 -30 34 -54 35 -16
65 -22 125 -22 87 0 125 16 162 65 19 26 21 43 24 233 l3 204 -25 0 c-21 0
-26 -5 -26 -25 0 -30 -7 -31 -34 -6 -42 37 -116 50 -180 31z m152 -70 c81 -49
67 -171 -24 -211 -36 -17 -50 -18 -83 -9 -61 16 -89 44 -97 96 -5 33 -2 56 9
78 29 62 130 85 195 46z"/>
<path d="M7815 1211 c-72 -18 -118 -66 -134 -142 -20 -93 18 -170 104 -210 94
-44 248 -1 216 59 -11 20 -11 20 -48 1 -45 -23 -113 -25 -153 -4 -28 14 -60
60 -60 85 0 6 52 10 150 10 l150 0 0 35 c0 76 -53 144 -128 165 -41 11 -54 11
-97 1z m113 -67 c26 -18 55 -71 47 -84 -3 -6 -57 -10 -121 -10 -109 0 -114 1
-114 21 0 12 15 36 34 55 29 29 41 34 83 34 28 0 58 -7 71 -16z"/>
<path d="M229 851 c-40 -40 -39 -82 1 -123 27 -26 36 -30 68 -25 23 4 45 16
57 32 20 24 26 25 117 25 75 0 97 -3 100 -14 3 -12 8 -13 36 -1 29 13 32 18
32 55 0 37 -3 42 -32 55 -32 13 -33 13 -36 -11 -3 -24 -5 -24 -103 -24 -80 0
-101 3 -106 15 -7 19 -55 45 -83 45 -12 0 -35 -13 -51 -29z m76 -61 c0 -8 -8
-16 -17 -18 -13 -2 -18 3 -18 18 0 15 5 20 18 18 9 -2 17 -10 17 -18z"/>
<path d="M1577 850 c-33 -29 -38 -30 -130 -30 -94 0 -96 0 -99 24 -3 24 -4 24
-35 11 -30 -13 -33 -18 -33 -54 0 -37 3 -42 33 -54 27 -12 33 -12 40 0 6 9 33
13 99 13 86 0 92 -1 125 -30 18 -16 42 -30 53 -30 93 0 130 124 49 165 -41 22
-64 18 -102 -15z m78 -60 c0 -8 -8 -16 -17 -18 -13 -2 -18 3 -18 18 0 15 5 20
18 18 9 -2 17 -10 17 -18z"/>
<path d="M603 605 c-27 -12 -33 -20 -33 -45 0 -44 24 -96 54 -115 22 -15 62
-17 340 -16 174 1 322 4 331 7 27 11 55 69 55 117 0 42 -2 46 -31 56 -18 6
-34 11 -35 11 -2 0 -4 -25 -4 -55 0 -43 -4 -56 -19 -65 -25 -13 -580 -13 -601
0 -9 5 -17 31 -20 64 l-5 54 -32 -13z"/>
</g>
</svg>
