<svg width="18" height="18" viewBox="0 0 18 18" fill="none" xmlns="http://www.w3.org/2000/svg">
<g clip-path="url(#clip0_2187_9063)">
<path d="M9.00145 6.77816C8.41208 6.77816 7.84685 7.01228 7.4301 7.42903C7.01335 7.84578 6.77923 8.41101 6.77923 9.00038C6.77923 9.58975 7.01335 10.155 7.4301 10.5717C7.84685 10.9885 8.41208 11.2226 9.00145 11.2226C9.59082 11.2226 10.1561 10.9885 10.5728 10.5717C10.9895 10.155 11.2237 9.58975 11.2237 9.00038C11.2237 8.41101 10.9895 7.84578 10.5728 7.42903C10.1561 7.01228 9.59082 6.77816 9.00145 6.77816ZM9.00145 12.7041C8.01917 12.7041 7.07712 12.3139 6.38254 11.6193C5.68796 10.9247 5.29775 9.98266 5.29775 9.00038C5.29775 8.0181 5.68796 7.07604 6.38254 6.38147C7.07712 5.68689 8.01917 5.29668 9.00145 5.29668C9.98373 5.29668 10.9258 5.68689 11.6204 6.38147C12.3149 7.07604 12.7052 8.0181 12.7052 9.00038C12.7052 9.98266 12.3149 10.9247 11.6204 11.6193C10.9258 12.3139 9.98373 12.7041 9.00145 12.7041ZM9.00145 3.44482C5.29775 3.44482 2.13478 5.74853 0.853302 9.00038C2.13478 12.2522 5.29775 14.5559 9.00145 14.5559C12.7052 14.5559 15.8681 12.2522 17.1496 9.00038C15.8681 5.74853 12.7052 3.44482 9.00145 3.44482Z" fill="url(#paint0_linear_2187_9063)"/>
</g>
<defs>
<linearGradient id="paint0_linear_2187_9063" x1="9.00145" y1="3.44482" x2="9.00145" y2="14.5559" gradientUnits="userSpaceOnUse">
<stop stop-color="white"/>
<stop offset="1" stop-color="white" stop-opacity="0.5"/>
</linearGradient>
<clipPath id="clip0_2187_9063">
<rect width="17.7778" height="17.7778" fill="white" transform="translate(0.111115 0.111328)"/>
</clipPath>
</defs>
</svg>
